<svg width="104" height="99" viewBox="0 0 104 99" fill="none" xmlns="http://www.w3.org/2000/svg">
<g clip-path="url(#clip0_4_153)">
<path d="M55.4331 7.24499L63.5355 15.0631L94.381 6.19888e-06L55.4331 7.24499ZM52.7668 7.74096L44.9398 17.9607L60.8662 15.6084L52.7668 7.74096ZM16.2185 14.5436L20.8762 20.838L39.7079 18.5312L16.2185 14.5436ZM32.8555 48.5791L41.8366 20.3729L1.50254 25.6339L32.8555 48.5791ZM34.7574 49.9015L50.3421 61.438L62.0568 44.7339L61.6345 17.748L44.0111 20.0986L34.7574 49.9015Z" fill="#0F0F0F"/>
<path d="M49.3829 96.4203C43.323 96.4203 40.0089 92.112 39.4408 83.4955H27.2262C26.2793 85.6733 25.4745 87.7091 24.8117 89.6028L22.9653 95H13.0232L35.3929 48.13H50.6612L53.6438 82.6434C54.1173 87.6144 55.3008 90.8338 57.1946 92.3014C55.8216 95.0473 53.2177 96.4203 49.3829 96.4203ZM29.4277 78.3114H39.2277L38.3756 60.0605V58.1431L33.3335 69.2925L29.4277 78.3114Z" fill="#0F0F0F"/>
</g>
<defs>
<clipPath id="clip0_4_153">
<rect width="104" height="99" fill="white"/>
</clipPath>
</defs>
</svg>
